<?xml version="1.0" encoding="utf-8"?>
<!-- Generator: Adobe Illustrator 16.0.0, SVG Export Plug-In . SVG Version: 6.00 Build 0)  -->
<!DOCTYPE svg PUBLIC "-//W3C//DTD SVG 1.1//EN" "http://www.w3.org/Graphics/SVG/1.1/DTD/svg11.dtd">
<svg version="1.1" id="Layer_1" xmlns:sketch="http://www.bohemiancoding.com/sketch/ns"
	 xmlns="http://www.w3.org/2000/svg" xmlns:xlink="http://www.w3.org/1999/xlink" x="0px" y="0px" width="1001px" height="1002px"
	 viewBox="0 0 1001 1002" enable-background="new 0 0 1001 1002" xml:space="preserve">
<title>Vimeo</title>
<description>Created with Sketch (http://www.bohemiancoding.com/sketch)</description>
<g>
	<path fill="#808080" d="M510.954,329.685c-18.198,0.202-34.581,7.621-46.372,19.47c-11.792,11.849-18.992,28.128-18.827,46.05
		c0.335,36.322,29.598,65.52,65.467,65.316c36.213-0.205,65.313-29.358,65.335-65.453
		C576.578,358.915,546.851,329.287,510.954,329.685z"/>
	<path fill="#808080" d="M500,0C223.857,0,0,223.857,0,500c0,276.143,223.856,500,500,500c276.143,0,500-223.857,500-500
		C1000,223.857,776.143,0,500,0z M658.725,401.695c-0.16,0.678-0.398,1.347-0.469,2.032c-1.57,15.099-5.28,29.745-9.465,44.277
		c-10.061,34.946-23.062,68.855-36.683,102.522c-30.379,75.104-64.453,148.55-99.905,221.369c-0.282,0.582-0.662,1.118-1.125,1.892
		c-0.525-1.039-0.935-1.816-1.318-2.604c-27.779-56.981-54.581-114.418-79.569-172.686c-17.872-41.672-34.923-83.669-49.311-126.694
		c-5.718-17.1-10.875-34.37-14.348-52.088c-1.168-5.97-1.978-12.012-2.952-18.021c0-5.318,0-10.636,0-15.954
		c0.177-0.859,0.381-1.712,0.524-2.577c1.388-8.36,2.132-16.886,4.256-25.054c9.315-35.808,29.482-64.196,59.926-85.16
		c18.651-12.843,39.301-20.804,61.764-23.943c3.928-0.549,7.864-1.023,11.797-1.532c6.204,0,12.408,0,18.612,0
		c0.769,0.171,1.527,0.378,2.304,0.506c8.448,1.393,17.066,2.125,25.317,4.27c35.812,9.303,64.196,29.473,85.158,59.925
		c12.842,18.655,20.805,39.298,23.95,61.759c0.55,3.931,1.025,7.871,1.536,11.806C658.725,391.059,658.725,396.377,658.725,401.695z
		"/>
</g>
</svg>
